<svg width="480" height="480" xmlns="http://www.w3.org/2000/svg" xmlns:svg="http://www.w3.org/2000/svg"
     xmlns:xlink="http://www.w3.org/1999/xlink">
    <defs id="defs4">
        <linearGradient id="linearGradient2224">
            <stop id="stop2226" offset="0" stop-color="#2e3436"/>
            <stop id="stop2228" offset="1" stop-color="#babdb6"/>
        </linearGradient>
        <linearGradient id="linearGradient15218">
            <stop id="stop15220" offset="0" stop-color="#eeeeec"/>
            <stop id="stop2736" offset="0.6" stop-color="#eeeeec"/>
            <stop id="stop2738" offset="0.83" stop-color="#ffffff"/>
            <stop id="stop15222" offset="1" stop-color="#d3d7cf"/>
        </linearGradient>
        <linearGradient id="linearGradient2257">
            <stop id="stop2259" offset="0" stop-color="#ffffff"/>
            <stop id="stop2261" offset="1" stop-color="#ffffff" stop-opacity="0"/>
        </linearGradient>
        <linearGradient id="linearGradient92299" x1="-0.09" x2="1.09" xlink:href="#linearGradient2257" y1="0.5"
                        y2="0.5"/>
        <linearGradient id="linearGradient92302" x1="0.64" x2="0.39" xlink:href="#linearGradient2224" y1="0.24"
                        y2="0.56"/>
        <linearGradient id="linearGradient92309" x1="0.44" x2="0.91" xlink:href="#linearGradient15218" y1="0.66"
                        y2="0.1"/>
    </defs>
    <g class="layer">
        <g>
            <rect fill="none" height="451.78" id="rect2300" width="379.78" x="38.51" y="10.84"/>
            <path d="m140.63,414.02l249.61,0c2.64,0 4.77,-2.62 4.77,-5.86l0,-280.4c0,-25.56 -57.52,-85.69 -77.48,-85.69l-176.89,0c-2.64,0 -4.77,2.61 -4.77,5.85l0,360.23c0,3.24 2.12,5.86 4.77,5.86l0,0l-0.01,0.01z"
                  fill="url(#linearGradient92309)" fill-rule="evenodd" id="rect12413" stroke="#888a85"
                  stroke-dashoffset="0" stroke-miterlimit="4" stroke-width="17.24"/>
            <rect display="inline" fill="#000000" fill-rule="evenodd" height="20.81" id="rect2271" opacity="0.17"
                  width="183.71" x="157.58" y="179.73"/>
            <rect display="inline" fill="#000000" fill-rule="evenodd" height="20.81" id="rect2273" opacity="0.17"
                  width="174.9" x="157.58" y="219.64"/>
            <rect display="inline" fill="#000000" fill-rule="evenodd" height="20.81" id="rect2275" opacity="0.17"
                  width="157.27" x="157.82" y="261.33"/>
            <rect display="inline" fill="#000000" fill-rule="evenodd" height="20.81" id="rect2277" opacity="0.17"
                  width="183.71" x="158" y="304.61"/>
            <path d="m327.14,42.22c14.79,-3.22 69.82,44.2 67.61,82.91c-11.39,-23.64 -34.65,-12.55 -64.57,-14.1c0,0 2.88,-63.93 -3.04,-68.81l0,0z"
                  display="inline" fill="url(#linearGradient92302)" fill-rule="evenodd" id="path2210" stroke="#888a85"
                  stroke-dashoffset="0" stroke-miterlimit="4" stroke-width="15.64"/>
            <path d="m337.7,63.6c9.97,6.68 32.24,20.94 41.71,39.3c-11.62,-6.63 -21.47,-2.05 -41.53,-1.86c0,0 1.18,-29.88 -0.18,-37.44z"
                  display="inline" fill="none" id="path2247" opacity="0.37" stroke="url(#linearGradient92299)"
                  stroke-dashoffset="0" stroke-miterlimit="4" stroke-width="15.64"/>
            <rect fill="#ce5c00" fill-rule="nonzero" height="188.17" id="rect4950" stroke="#ce5c00"
                  stroke-linecap="round" stroke-linejoin="round" stroke-miterlimit="4" stroke-width="16.98"
                  width="262.98" x="49.11" y="121.41"/>
            <path d="m56.39,300.49l247.84,0.07l-0.14,-170.21l-247.8,0.17l0.1,169.97l0,0z" fill="#f57900" id="path6849"
                  stroke="#fcaf3e" stroke-linejoin="round" stroke-miterlimit="4" stroke-width="14.86"/>
        </g>
        <text fill="#ffffff" font-family="Serif" font-size="24" id="svg_1" stroke="#ffffff" stroke-width="0"
              text-anchor="middle" transform="matrix(1 0 0 1 0 0) matrix(2.06736 0 0 3.3163 -71.1585 -451.282)"
              x="120.28" xml:space="preserve" y="210.17">OOXML</text>
        <g>
            <ellipse fill="none" stroke="#000000" stroke-width="5" cx="300" cy="300" rx="50" ry="50"/>
            <line fill="none" stroke="#000000" stroke-width="5" x1="333" y1="340" x2="380" y2="380"/>
        </g>
    </g>
</svg>